<?xml version="1.0" encoding="UTF-8" standalone="no"?>
<!-- Created with Inkscape (http://www.inkscape.org/) -->

<svg
   version="1.1"
   id="svg1"
   width="146.66667"
   height="230.66667"
   viewBox="0 0 146.66667 230.66667"
   sodipodi:docname="roseblack.svg"
   inkscape:version="1.4.2 (ebf0e940d0, 2025-05-08)"
   xmlns:inkscape="http://www.inkscape.org/namespaces/inkscape"
   xmlns:sodipodi="http://sodipodi.sourceforge.net/DTD/sodipodi-0.dtd"
   xmlns="http://www.w3.org/2000/svg"
   xmlns:svg="http://www.w3.org/2000/svg">
  <defs
     id="defs1" />
  <sodipodi:namedview
     id="namedview1"
     pagecolor="#ffffff"
     bordercolor="#000000"
     borderopacity="0.25"
     inkscape:showpageshadow="2"
     inkscape:pageopacity="0.0"
     inkscape:pagecheckerboard="0"
     inkscape:deskcolor="#d1d1d1"
     inkscape:zoom="5.2456646"
     inkscape:cx="73.298625"
     inkscape:cy="115.33334"
     inkscape:window-width="2560"
     inkscape:window-height="1412"
     inkscape:window-x="0"
     inkscape:window-y="0"
     inkscape:window-maximized="1"
     inkscape:current-layer="g1">
    <inkscape:page
       x="0"
       y="0"
       inkscape:label="1"
       id="page1"
       width="146.66667"
       height="230.66667"
       margin="0"
       bleed="0" />
  </sodipodi:namedview>
  <g
     id="g1"
     inkscape:groupmode="layer"
     inkscape:label="1">
    <path
       id="path1"
       d="M 219.648,1031.64 C 141.68,1085.47 -10.8594,1226.8 7.46094,1354.18 24.2617,1471.02 204.379,1603.79 277.5,1583.28 c 33.91,-9.53 -27.109,-66.09 -49.219,-93.48 -50.98,-63.2 -99.922,-90.15 -83.32,-151.95 33.668,-125.51 109.18,-185.86 74.687,-306.21 z M 31.5586,1000.59 C -0.621094,898.949 96.8008,702.07 195.898,661.719 345.309,600.82 568.32,567.27 605.98,606.84 659.141,662.66 457.891,754.879 394.879,713.629 321.25,665.43 118.828,754.262 183.359,931.988 206.949,984.102 76.0195,1140.7 31.5586,1000.59 Z"
       style="fill:#000000;fill-opacity:1;fill-rule:nonzero;stroke:none"
       transform="matrix(0.13333333,0,0,-0.13333333,0,230.66667)" />
    <path
       id="path2"
       d="m 993.121,993.52 c 44.179,29.06 118.719,31.44 104.609,-52.149 C 1033.4,810.738 891.52,651.332 701.09,703.711 464.301,768.91 431.328,796.172 282.27,763.828 199.73,745.898 223.398,986.289 268.871,975.781 405.699,944.102 387.461,617.5 993.121,993.52 Z"
       style="fill:#000000;fill-opacity:1;fill-rule:nonzero;stroke:none"
       transform="matrix(0.13333333,0,0,-0.13333333,0,230.66667)" />
    <path
       id="path3"
       d="m 225.512,1307.46 c -0.313,-59.34 109.879,-258.59 182.066,-266.01 5.863,132.1 -96.488,306.05 51.723,386.52 196.558,81.44 302.5,-51.88 317.301,-24.34 2.617,233.79 -538.243,192.78 -551.09,-96.17 z"
       style="fill:#000000;fill-opacity:1;fill-rule:nonzero;stroke:none"
       transform="matrix(0.13333333,0,0,-0.13333333,0,230.66667)" />
    <path
       id="path4"
       d="M 73.8281,19.1797 C 140.078,89.3789 110.039,222.031 149.379,364.648 218.789,616.051 607.148,541.719 607.148,541.719 322.23,415.551 170.898,13.6719 73.8281,19.1797 Z"
       style="fill:#000000;fill-opacity:1;fill-rule:nonzero;stroke:none"
       transform="matrix(0.13333333,0,0,-0.13333333,0,230.66667)" />
    <path
       id="path5"
       d="m 711.801,1377.38 c 3.629,-22.58 -147.891,33.17 -174.813,-140.04 -7.027,-45.23 -2.218,-101.83 30.434,-133.9 25.348,-24.92 103.558,13.75 104.379,-21.76 0.859,-37.85 -114.961,-65.82 -173.949,-52.19 -20,4.61 -41.09,21.64 -45.231,41.76 -8.48,41.33 1.051,165.23 21.758,233.95 24.449,81.25 227.57,133.94 237.422,72.18 z"
       style="fill:#000000;fill-opacity:1;fill-rule:nonzero;stroke:none"
       transform="matrix(0.13333333,0,0,-0.13333333,0,230.66667)" />
    <path
       id="path6"
       d="m 662.73,1310 c 36.25,-5.86 87.04,-26.56 82.969,-81.17 -7.5,-100.74 -53.508,-87.19 -69.879,-43.52 -8.121,21.6 13.52,48.52 -36.019,54.49 -51.481,6.25 -38,-74.84 -16.949,-91.6 114.097,-90.66 267.539,101.57 70.976,184.42 -14.687,6.17 -43.519,-20.63 -31.098,-22.62 z"
       style="fill:#000000;fill-opacity:1;fill-rule:nonzero;stroke:none"
       transform="matrix(0.13333333,0,0,-0.13333333,0,230.66667)" />
    <path
       id="path7"
       d="m 1095.62,1414.77 c -11.01,170.11 -296.87,364.18 -658.472,297.69 -50.976,-9.37 -146.949,-121.13 -107.378,-153.16 21.281,-17.23 150.89,49.49 210.308,48.9 156.832,-1.56 281.801,-28.43 330.621,-177.46 66.68,-253.9 -30.148,-363.75 -267.258,-446.478 C 426.129,935.469 364.18,1072.58 361.129,1010.12 376.52,739.648 1130.78,870.699 1095.62,1414.77 Z"
       style="fill:#000000;fill-opacity:1;fill-rule:nonzero;stroke:none"
       transform="matrix(0.13333333,0,0,-0.13333333,0,230.66667)" />
    <path
       id="path8"
       d="M 616.129,480.551 C 391.328,458.359 268.91,84.8398 119.219,5.35156 c 0,0 333.121,34.52734 462.73,227.76944 65.43,97.539 34.18,247.43 34.18,247.43 z"
       style="fill:#000000;fill-opacity:1;fill-rule:nonzero;stroke:none"
       transform="matrix(0.13333333,0,0,-0.13333333,0,230.66667)" />
    <path
       id="path9"
       d="m 686.559,617.031 c 161.992,-35.429 213.402,-237.23 344.341,-345.429 0,0 -250.822,49.808 -320.119,144.097 -40.043,54.5 -24.222,201.332 -24.222,201.332 z"
       style="fill:#000000;fill-opacity:1;fill-rule:nonzero;stroke:none"
       transform="matrix(0.13333333,0,0,-0.13333333,0,230.66667)" />
    <path
       id="path10"
       d="M 709.488,646.051 C 925.699,549.691 990.82,293.75 1078.01,267.27 c -50.43,78.902 -32.5,229.839 -125.549,324.25 -59.18,59.96 -242.973,54.531 -242.973,54.531 z"
       style="fill:#000000;fill-opacity:1;fill-rule:nonzero;stroke:none"
       transform="matrix(0.13333333,0,0,-0.13333333,0,230.66667)" />
  </g>
</svg>
